<svg width="24" height="24" viewBox="0 0 24 24" fill="none" xmlns="http://www.w3.org/2000/svg"><title>Arbitrum Logo</title><g clip-path="url(#a)"><g clip-path="url(#b)"><path d="M2.083 7.004v9.032c0 .58.304 1.106.81 1.4l7.825 4.517a1.625 1.625 0 0 0 1.613 0l7.825-4.516c.497-.286.81-.82.81-1.401V7.004a1.61 1.61 0 0 0-.81-1.4L12.33 1.087a1.625 1.625 0 0 0-1.613 0L2.894 5.603a1.61 1.61 0 0 0-.802 1.401h-.01Z" fill="#213147"/><path d="m13.225 13.271-1.115 3.06a.441.441 0 0 0 0 .267l1.917 5.262 2.22-1.28-2.663-7.309a.192.192 0 0 0-.359 0Zm2.239-5.142a.192.192 0 0 0-.359 0l-1.115 3.06a.44.44 0 0 0 0 .267l3.143 8.617 2.22-1.282-3.889-10.653v-.01Z" fill="#12AAFF"/><path d="M11.52 1.428a.31.31 0 0 1 .157.047l8.46 4.884a.313.313 0 0 1 .157.277v9.768a.334.334 0 0 1-.157.277l-8.46 4.884a.31.31 0 0 1-.157.046.31.31 0 0 1-.157-.046l-8.46-4.884a.313.313 0 0 1-.157-.277V6.626c0-.11.065-.22.157-.276l8.46-4.885a.31.31 0 0 1 .157-.046v.01Zm0-1.428c-.304 0-.599.074-.875.23l-8.46 4.885a1.738 1.738 0 0 0-.876 1.511v9.77c0 .626.331 1.197.875 1.51l8.46 4.885c.268.157.572.23.876.23.304 0 .6-.073.876-.23l8.46-4.884c.544-.314.875-.885.875-1.512V6.626c0-.626-.331-1.198-.875-1.511L12.386.23a1.728 1.728 0 0 0-.875-.23h.009Z" fill="#9DCCED"/><path d="m5.917 20.082.783-2.138 1.567 1.3L6.8 20.588l-.884-.507Z" fill="#213147"/><path d="M10.801 5.935H8.654a.39.39 0 0 0-.36.249L3.696 18.79l2.22 1.281 5.07-13.888a.19.19 0 0 0-.176-.258l-.009.009Zm3.76 0h-2.147a.39.39 0 0 0-.36.249L6.803 20.579l2.22 1.281 5.714-15.676a.19.19 0 0 0-.175-.258v.009Z" fill="#fff"/></g></g><defs><clipPath id="a"><path fill="#fff" d="M0 0h24v24H0z"/></clipPath><clipPath id="b"><path fill="#fff" d="M0 0h23.04v23.04H0z"/></clipPath></defs></svg>