<svg xmlns="http://www.w3.org/2000/svg" width="60" height="60" fill="none" viewBox="0 0 60 60"><title>Ethereum Logo</title><g fill-rule="evenodd" clip-path="url(#ethereum-logo)" clip-rule="evenodd"><path fill="#6F7EDA" d="M59.126 37.258c-4.01 16.038-20.33 25.855-36.373 21.845C6.64 55.093-3.11 38.848.9 22.742 4.911 6.704 21.162-3.113 37.205.897c16.112 4.01 25.862 20.255 21.92 36.361h.001Z"/><path fill="#fff" d="m30.013 10.432-.277.899v25.854l.277.276 11.963-7.12-11.963-19.91v.001Z"/><path fill="#fff" d="M30.014 10.432 17.982 30.34l12.032 7.12V10.432Zm-.004 29.303-.207.138v9.194l.208.484 11.963-16.936-11.963 7.12h-.001Z"/><path fill="#fff" d="M30.014 49.551v-9.816l-12.032-7.12L30.014 49.55v.001Zm-.002-12.083 11.963-7.12-11.963-5.461v12.581Z"/><path fill="#fff" d="m17.982 30.348 12.032 7.12V24.886l-12.032 5.462Z"/></g><defs><clipPath id="ethereum-logo"><path fill="#fff" d="M0 0h60v60H0z"/></clipPath></defs></svg>