<svg xmlns="http://www.w3.org/2000/svg" width="60" height="60" fill="none" viewBox="0 0 60 60"><title>Li.Finance Logo</title><g clip-path="url(#lifi-icon)"><path fill="#F3ACFE" d="M29.856 59.712c16.489 0 29.856-13.367 29.856-29.856S46.345 0 29.856 0 0 13.367 0 29.856s13.367 29.856 29.856 29.856Z"/><path fill="#000" d="m28.346 36.199-10.323 2.39a.905.905 0 0 0-.659.848v7.106c0 .598.47.975 1.067.85l14.401-3.334c.596-.125.847-.691.596-1.226l-2.604-5.376c-.408-.85 0-1.73.91-1.918l9.412-2.264c.66-.157 1.224-.85 1.224-1.541v-6.571c0-.598-.47-1.007-1.067-.85l-13.585 3.24c-.847.188-1.224 1.005-.847 1.791l2.384 4.937c.408.849 0 1.698-.91 1.918Z"/><path fill="#000" d="m21.538 18.434 2.698 5.534c.345.723 0 1.478-.784 1.635l-4.989 1.163c-.628.157-1.13.786-1.13 1.415v5.943c0 1.006.816 1.635 1.789 1.415l4.643-1.07c.628-.125 1.13-.785 1.13-1.414l.031-6.1c0-.85.69-1.698 1.506-1.887l15.217-3.647a.906.906 0 0 0 .659-.849v-7.106c0-.597-.47-1.006-1.067-.849l-19.107 4.59c-.596.127-.847.692-.596 1.227Z"/></g><defs><clipPath id="lifi-icon"><path fill="#fff" d="M0 0h60v60H0z"/></clipPath></defs></svg>