<svg xmlns="http://www.w3.org/2000/svg" width="24" height="24" viewBox="0 0 24 24" fill="none"><title>Polygon Logo</title><rect width="24" height="24" rx="12" fill="#F0E9FC"/><path d="M16.594 9.398c-.328-.187-.75-.187-1.125 0l-2.625 1.547-1.781.985-2.579 1.547c-.328.187-.75.187-1.125 0l-2.015-1.22a1.143 1.143 0 0 1-.563-.984V8.93c0-.375.188-.75.563-.985l2.015-1.172c.329-.187.75-.187 1.125 0l2.016 1.22c.328.187.563.562.563.984v1.546l1.78-1.03V7.897c0-.375-.187-.75-.562-.984L8.531 4.71c-.328-.188-.75-.188-1.125 0L3.563 6.96A1.031 1.031 0 0 0 3 7.898v4.407c0 .375.188.75.563.984l3.796 2.203c.329.188.75.188 1.125 0l2.579-1.5 1.78-1.031 2.579-1.5c.328-.188.75-.188 1.125 0l2.015 1.172c.329.187.563.562.563.984v2.344c0 .375-.188.75-.563.984l-1.968 1.172c-.328.188-.75.188-1.125 0l-2.016-1.172a1.143 1.143 0 0 1-.562-.984v-1.5l-1.782 1.031v1.547c0 .375.188.75.563.984l3.797 2.204c.328.187.75.187 1.125 0l3.797-2.204c.328-.187.562-.562.562-.984v-4.453c0-.375-.187-.75-.562-.984l-3.797-2.204Z" fill="#8247E5"/></svg>