<svg width="24" height="24" viewBox="0 0 24 24" fill="none" xmlns="http://www.w3.org/2000/svg"><title>Solana Logo</title><rect width="24" height="24" rx="12" fill="#000"/><g clip-path="url(#clip0_678_366)"><path d="M6.83 15.15a.5.5 0 0 1 .352-.145H19.39a.25.25 0 0 1 .176.426l-2.412 2.41a.5.5 0 0 1-.353.146H4.594a.25.25 0 0 1-.177-.426l2.413-2.41Z" fill="url(#paint0_linear_678_366)"/><path d="M6.83 6.146A.5.5 0 0 1 7.182 6H19.39a.25.25 0 0 1 .176.426l-2.412 2.41a.5.5 0 0 1-.353.146H4.594a.25.25 0 0 1-.177-.426l2.413-2.41Z" fill="url(#paint1_linear_678_366)"/><path d="M17.154 10.62a.5.5 0 0 0-.353-.146H4.594a.25.25 0 0 0-.177.426l2.413 2.41a.5.5 0 0 0 .352.146H19.39a.25.25 0 0 0 .176-.426l-2.412-2.41Z" fill="url(#paint2_linear_678_366)"/></g><defs><linearGradient id="paint0_linear_678_366" x1="14.685" y1="2.712" x2="6.236" y2="18.895" gradientUnits="userSpaceOnUse"><stop stop-color="#00FFA3"/><stop offset="1" stop-color="#DC1FFF"/></linearGradient><linearGradient id="paint1_linear_678_366" x1="14.685" y1="2.712" x2="6.236" y2="18.895" gradientUnits="userSpaceOnUse"><stop stop-color="#00FFA3"/><stop offset="1" stop-color="#DC1FFF"/></linearGradient><linearGradient id="paint2_linear_678_366" x1="14.685" y1="2.712" x2="6.236" y2="18.895" gradientUnits="userSpaceOnUse"><stop stop-color="#00FFA3"/><stop offset="1" stop-color="#DC1FFF"/></linearGradient><clipPath id="clip0_678_366"><path fill="#fff" transform="translate(4.344 6)" d="M0 0h15.308v12H0z"/></clipPath></defs></svg>