<svg width="31" height="31" viewBox="0 0 31 31" xmlns="http://www.w3.org/2000/svg"><title>USDC Logo</title><path data-name="Path 10" d="M15.5 31A15.5 15.5 0 1 0 0 15.5 15.463 15.463 0 0 0 15.5 31z" fill="#2775ca"/><path data-name="Path 11" d="M19.762 17.949c0-2.26-1.356-3.035-4.069-3.358-1.938-.258-2.325-.775-2.325-1.679s.646-1.485 1.938-1.485a1.911 1.911 0 0 1 2.132 1.36.486.486 0 0 0 .452.323h1.033a.441.441 0 0 0 .452-.452v-.065a3.226 3.226 0 0 0-2.906-2.648v-1.55c0-.258-.194-.452-.517-.517h-.969c-.258 0-.452.194-.517.517V9.88a3.293 3.293 0 0 0-3.164 3.165c0 2.131 1.292 2.971 4 3.294 1.808.323 2.39.71 2.39 1.744s-.9 1.744-2.131 1.744c-1.679 0-2.261-.711-2.454-1.679a.472.472 0 0 0-.452-.388h-1.1a.441.441 0 0 0-.452.452v.065a3.607 3.607 0 0 0 3.423 3.1v1.55c0 .258.194.452.517.517h.969c.258 0 .452-.194.517-.517v-1.55a3.538 3.538 0 0 0 3.233-3.428z" fill="#fff"/><path data-name="Path 12" d="M12.206 24.735a9.664 9.664 0 0 1 0-18.148.648.648 0 0 0 .387-.646v-.9a.491.491 0 0 0-.387-.517.389.389 0 0 0-.258.064 11.622 11.622 0 0 0 0 22.152.393.393 0 0 0 .581-.258c.065-.064.065-.129.065-.258v-.9a.86.86 0 0 0-.388-.589zm6.846-20.15a.393.393 0 0 0-.581.258c-.065.065-.065.129-.065.258v.9a.857.857 0 0 0 .387.646 9.664 9.664 0 0 1 0 18.148.648.648 0 0 0-.387.646v.9a.491.491 0 0 0 .387.517.389.389 0 0 0 .258-.065 11.672 11.672 0 0 0 0-22.217z" fill="#fff"/></svg>
